<svg width="120" height="120" viewBox="0 0 120 120" fill="none" xmlns="http://www.w3.org/2000/svg">
  <circle cx="60" cy="60" r="60" fill="#10B981"/>
  <path d="M40 45C40 40.5817 43.5817 37 48 37H52C56.4183 37 60 40.5817 60 45V55C60 59.4183 56.4183 63 52 63H48C43.5817 63 40 59.4183 40 55V45Z" fill="white"/>
  <path d="M50 35C50 30.5817 53.5817 27 58 27H62C66.4183 27 70 30.5817 70 35V45C70 49.4183 66.4183 53 62 53H58C53.5817 53 50 49.4183 50 45V35Z" fill="white"/>
  <path d="M60 35C60 30.5817 63.5817 27 68 27H72C76.4183 27 80 30.5817 80 35V45C80 49.4183 76.4183 53 72 53H68C63.5817 53 60 49.4183 60 45V35Z" fill="white"/>
  <path d="M35 65C35 60.5817 38.5817 57 43 57H47C51.4183 57 55 60.5817 55 65V75C55 79.4183 51.4183 83 47 83H43C38.5817 83 35 79.4183 35 75V65Z" fill="white"/>
  <path d="M65 65C65 60.5817 68.5817 57 73 57H77C81.4183 57 85 60.5817 85 65V75C85 79.4183 81.4183 83 77 83H73C68.5817 83 65 79.4183 65 75V65Z" fill="white"/>
  <text x="60" y="100" text-anchor="middle" fill="white" font-family="Arial, sans-serif" font-size="12" font-weight="bold">GREEN THUMBS</text>
</svg>
